#!OML:ASF H:\MichaelJackson\Top Level 1\Subject 1\Session 1\male.ASF
:FULLY-SPECIFIED
:DEGREES
1023
root 8.37023 16.7965 33.1689 -175.44 -231.152 -179.823
lowerback 4.10674 -8.97007 -2.90438
upperback -0.877364 -12.0807 1.29914
thorax -2.30079 -5.98072 3.55495
lowerneck -8.73928 -7.50678 -1.56913
upperneck 2.00329 -9.93297 2.2462
head 2.33575 -4.88974 0.504484
rclavicle 1.18873e-013 1.59028e-015
rhumerus -62.696 0.999062 -92.4782
rradius 100.157
rwrist -0.916646
rhand -24.6412 -21.6256
rfingers 7.12502
rthumb 1.85814 -411.597
lclavicle 1.18873e-013 1.59028e-015
lhumerus -50.6241 -39.743 122.634
lradius 48.9385
lwrist 20.5446
lhand 22.1638 30.3993
lfingers 7.12502
lthumb 46.5452 53.2633
rfemur -37.5571 -12.2487 7.44422
rtibia 81.1774
rfoot 6.69728 -21.4357
rtoes 31.7665
lfemur -24.3713 32.1419 -22.4409
ltibia 38.6319
lfoot -18.6717 12.6724
ltoes -7.04643
1024
root 8.36561 16.7867 33.2065 -174.709 -231.751 -179.262
lowerback 3.66689 -9.15428 -2.73908
upperback -1.03503 -12.3132 1.1469
thorax -2.27103 -6.09904 3.26613
lowerneck -8.84709 -7.58318 -1.71048
upperneck 2.35627 -10.0278 2.27416
head 2.48614 -4.93399 0.518422
rclavicle 5.79209e-014 3.97569e-016
rhumerus -63.3228 2.59692 -92.8877
rradius 101.649
rwrist -0.870343
rhand -23.8263 -22.5752
rfingers 7.12502
rthumb 2.64511 -412.539
lclavicle 5.79209e-014 3.97569e-016
lhumerus -50.6277 -39.2398 122.433
lradius 48.5303
lwrist 20.3446
lhand 22.6891 30.3736
lfingers 7.12502
lthumb 47.0315 53.026
rfemur -35.2054 -10.1039 6.24635
rtibia 77.2971
rfoot 4.72202 -23.147
rtoes 34.9144
lfemur -24.8648 32.6605 -22.9293
ltibia 38.739
lfoot -18.4415 11.791
ltoes -5.19649
1025
root 8.3609 16.7749 33.2411 -173.994 -232.221 -178.665
lowerback 3.26999 -9.30546 -2.56346
upperback -1.16053 -12.5028 0.980504
thorax -2.24242 -6.19659 2.96088
lowerneck -8.92064 -7.65626 -1.87507
upperneck 2.64327 -10.1148 2.3084
head 2.61056 -4.97527 0.54135
rclavicle 3.75579e-014 -1.19271e-015
rhumerus -63.9589 4.28105 -93.1249
rradius 103.182
rwrist -0.8182
rhand -22.3952 -22.9583
rfingers 7.12502
rthumb 4.02712 -412.9
lclavicle 3.75579e-014 -1.19271e-015
lhumerus -50.5869 -38.7331 122.13
lradius 48.1479
lwrist 20.1765
lhand 23.2427 30.417
lfingers 7.12502
lthumb 47.543 52.8402
rfemur -32.9753 -7.94612 5.07023
rtibia 73.4208
rfoot 3.14286 -24.016
rtoes 36.2721
lfemur -25.3241 32.9167 -23.3854
ltibia 38.9165
lfoot -18.1898 10.9173
ltoes -2.69246
1026
root 8.35617 16.7613 33.2731 -173.335 -232.545 -178.066
lowerback 2.91497 -9.41441 -2.36813
upperback -1.24963 -12.6368 0.801625
thorax -2.21177 -6.26722 2.63579
lowerneck -8.93938 -7.72318 -2.0595
upperneck 2.8547 -10.1909 2.35307
head 2.70157 -5.01223 0.575396
rclavicle 3.46134e-014 4.96962e-015
rhumerus -64.6004 6.04162 -93.1587
rradius 104.764
rwrist -0.750553
rhand -20.2735 -22.7482
rfingers 7.12502
rthumb 6.07573 -412.641
lclavicle 3.46134e-014 4.96962e-015
lhumerus -50.5281 -38.2614 121.765
lradius 47.7982
lwrist 20.0999
lhand 23.7359 30.551
lfingers 7.12502
lthumb 47.9981 52.7647
rfemur -30.8583 -5.79873 3.9372
rtibia 69.5604
rfoot 2.00134 -24.1728
rtoes 36.1985
lfemur -25.7184 32.942 -23.7674
ltibia 39.1705
lfoot -17.9578 10.1658
ltoes 0.297487
1027
root 8.35136 16.7464 33.3034 -172.794 -232.709 -177.533
lowerback 2.59628 -9.47231 -2.12988
upperback -1.29888 -12.7023 0.615848
thorax -2.17581 -6.30493 2.28353
lowerneck -8.89014 -7.7834 -2.26698
upperneck 2.99647 -10.2562 2.41474
head 2.75902 -5.04478 0.623677
rclavicle -8.63968e-014 1.82882e-014
rhumerus -65.2365 7.87698 -92.9668
rradius 106.397
rwrist -0.688098
rhand -17.441 -21.9986
rfingers 7.12502
rthumb 8.8098 -411.795
lclavicle -8.63968e-014 1.82882e-014
lhumerus -50.4722 -37.8277 121.358
lradius 47.4999
lwrist 20.1066
lhand 24.1257 30.7536
lfingers 7.12502
lthumb 48.3573 52.798
rfemur -28.8493 -3.67633 2.89557
rtibia 65.726
rfoot 1.23306 -23.8073
rtoes 34.9783
lfemur -26.0238 32.7879 -24.0181
ltibia 39.5011
lfoot -17.7929 9.59233
ltoes 3.63497
1028
root 8.34662 16.7305 33.3329 -172.386 -232.736 -177.051
lowerback 2.33194 -9.4876 -1.87112
upperback -1.305 -12.7123 0.414956
thorax -2.13633 -6.31567 1.91066
lowerneck -8.77417 -7.82749 -2.48966
upperneck 3.08718 -10.2999 2.49317
head 2.78851 -5.06732 0.685066
rclavicle -1.7257e-014 -1.74931e-014
rhumerus -65.8503 9.80471 -92.5347
rradius 108.073
rwrist -0.679324
rhand -13.8979 -20.7964
rfingers 7.12502
rthumb 12.2276 -410.419
lclavicle -1.7257e-014 -1.74931e-014
lhumerus -50.447 -37.4326 120.925
lradius 47.2819
lwrist 20.1715
lhand 24.3884 30.9526
lfingers 7.12502
lthumb 48.5991 52.881
rfemur -26.9089 -1.63459 1.94105
rtibia 61.9402
rfoot 0.848242 -23.1911
rtoes 32.4699
lfemur -26.19 32.4977 -24.1218
ltibia 39.905
lfoot -17.7437 9.18789
ltoes 7.15964
1029
root 8.34128 16.7137 33.3628 -172.123 -232.632 -176.64
lowerback 2.11308 -9.46027 -1.59435
upperback -1.27333 -12.6666 0.196652
thorax -2.09267 -6.29922 1.51507
lowerneck -8.60246 -7.85434 -2.70996
upperneck 3.16625 -10.3233 2.58267
head 2.80396 -5.08015 0.75347
rclavicle -4.78823e-014 5.96354e-015
rhumerus -66.4227 11.8469 -91.8566
rradius 109.779
rwrist -0.805444
rhand -9.75119 -19.2861
rfingers 7.12502
rthumb 16.2232 -408.627
lclavicle -4.78823e-014 5.96354e-015
lhumerus -50.4666 -37.072 120.469
lradius 47.1635
lwrist 20.2498
lhand 24.5429 31.0586
lfingers 7.12502
lthumb 48.7412 52.918
rfemur -25.0558 0.308341 1.09342
rtibia 58.2523
rfoot 0.693761 -22.529
rtoes 29.145
lfemur -26.223 32.1263 -24.0663
ltibia 40.3779
lfoot -17.8139 8.92297
ltoes 10.605
